# Object Export From Tinkercad Server 2015

mtllib obj.mtl

o obj_0
v 13.003 		-27.003 		0.01
v 13.003 		-27.003 		0
v -5.003 		-27.003 		0
v -5.003 		-27.003 		0.01
v -5.003 		-8.998 		0
v -5.003 		-8.998 		0.01
v 13.003 		-8.998 		0.01
v 13.003 		-8.998 		0
v 14 		-28 		0.01
v 14 		-28 		0
v 14 		-8 		0
v 14 		-8 		0.01
v -6 		-8 		0.01
v -6 		-8 		0
v -6 		-28 		0
v -6 		-28 		0.01
# 16 vertices

g group_0_15277357

usemtl color_15277357
s 0

f 1 	2 	3
f 1 	3 	4
f 5 	6 	4
f 5 	4 	3
f 2 	1 	7
f 2 	7 	8
f 9 	10 	11
f 9 	11 	12
f 13 	14 	15
f 13 	15 	16
f 7 	12 	6
f 16 	9 	4
f 13 	16 	6
f 4 	6 	16
f 11 	14 	12
f 6 	5 	8
f 6 	8 	7
f 16 	10 	9
f 13 	12 	14
f 3 	15 	5
f 15 	14 	5
f 10 	2 	8
f 10 	8 	11
f 16 	15 	10
f 13 	6 	12
f 1 	9 	7
f 1 	4 	9
f 12 	7 	9
f 14 	11 	5
f 8 	5 	11
f 3 	2 	10
f 3 	10 	15
# 32 faces

 #end of obj_0

